<?xml version="1.0" encoding="utf-8"?>
<!DOCTYPE svg PUBLIC "-//W3C//DTD SVG 1.0//EN" "http://www.w3.org/TR/2001/REC-SVG-20010904/DTD/svg10.dtd">
<svg version="1.0" xmlns="http://www.w3.org/2000/svg" width="512px" height="512px" viewBox="0 0 512 512" preserveAspectRatio="xMidYMid meet">
 <g fill="#ffefe0">
  <path d="M286.3 476 c-43.2 -17.9 -78.5 -47.6 -107.6 -90.4 -5.7 -8.3 -6.5 -13.6 -2 -13.6 1.4 0 8 1.3 14.7 3 22.2 5.4 33.1 6.5 65.1 6.4 24.8 0 31 -0.3 43.1 -2.2 66.9 -10.4 104.2 -40.9 115.5 -94.4 2.9 -13.7 3.1 -37.4 0.6 -53.3 -3 -18.2 -8.7 -39.7 -11.3 -42.4 -1.1 -1.2 -1.5 -1.1 -2.3 1.3 -0.6 1.4 -1.7 2.9 -2.5 3.2 -0.8 0.3 -1.6 1.4 -1.9 2.5 -0.3 1.1 -1.4 1.9 -2.5 1.9 -1.1 0 -2.2 0.9 -2.5 2 -0.3 1.2 -1.4 2 -2.6 2 -1.2 0 -2.1 0.5 -2.1 1 0 0.6 -0.7 1 -1.5 1 -0.8 0 -1.5 0.6 -1.5 1.4 0 0.7 -1.5 1.9 -3.2 2.6 -1.8 0.7 -4.2 1.6 -5.3 2 -8 3.3 -28 4.1 -37.8 1.5 -11.2 -2.9 -22.1 -10.2 -29 -19.3 l-4.1 -5.4 -2 2.9 c-4.2 5.7 -8.9 10.3 -10.6 10.3 -1 0 -2 0.8 -2.2 1.8 -0.7 2.6 -11.5 8 -19.7 9.7 -26 5.4 -48.6 -2.4 -62.6 -21.8 l-2 -2.8 -5 6.3 c-5.7 7 -14.6 13.6 -23.2 16.8 -4.5 1.8 -8.6 2.4 -18.4 2.8 -13.4 0.5 -19.8 -0.4 -28.1 -4 l-5.1 -2.2 0.6 -14 c0.3 -7.8 1.3 -19.3 2.2 -25.6 2.1 -14.5 8.2 -38.6 13 -51.6 4.5 -12.3 17.7 -39.4 24.1 -49.4 7.4 -11.5 16.3 -23 18 -23 0.8 0 4.1 0.7 7.4 1.6 l5.9 1.7 6.6 -6.1 c7.9 -7.2 21.6 -14.4 32.9 -17.2 10.7 -2.7 26.5 -2.7 37.2 0 11.7 2.9 24.7 9.7 32.7 17 l6.7 6.2 7.3 -1.8 c10.5 -2.8 28.6 -2.5 39 0.4 9.6 2.7 19.2 7.5 27.5 13.7 5.9 4.3 6.5 4.5 8.2 3 1.6 -1.5 2.1 -1.1 6.9 4.7 2.9 3.5 7.2 10.6 9.7 15.8 2.5 5.2 5.1 10.6 5.7 11.9 0.9 1.7 3.4 3.2 8.7 5.1 12.1 4.4 14.4 5.4 15.5 6.6 0.6 0.6 3.3 2.7 6 4.6 10.1 7.2 19.9 19.2 25.5 31 3.9 8.2 4.8 12.8 2.8 14.2 -1.4 1 -1.4 1.9 -0.2 7.6 1.7 8.2 1.7 20.5 0 29.2 l-1.3 6.7 3 2.8 c4.9 4.7 12.4 16 15.5 23.6 8.2 19.6 8.2 41.8 0 61.4 -3.1 7.6 -10.6 18.9 -15.5 23.6 l-3 2.8 1.3 6.7 c5.2 26.5 -3.8 53 -24.5 72.4 -8.7 8.2 -21 15.3 -30.8 17.8 -4.7 1.2 -5.2 1.6 -6.3 5.4 -1.6 5.2 -6.4 14.8 -10.3 20.6 -10.1 14.7 -26.2 26 -44.4 31.2 -10.4 3 -28.5 3.2 -39.1 0.4 l-7.4 -1.9 -4.6 4.5 c-5.5 5.2 -11.5 9.8 -12.8 9.7 -0.5 0 -5.1 -1.8 -10.1 -3.9z"/>
 </g>
 <g fill="#fbe5c8">
  <path d="M238.5 489.5 c-12.6 -2.7 -23.6 -8.4 -35.3 -18.3 l-6.2 -5.3 -5.8 1.8 c-4.3 1.3 -9.1 1.8 -19.7 1.7 -13.1 0 -14.6 -0.2 -23.5 -3.3 -11.9 -4 -21.2 -9.5 -29.7 -17.4 -10.5 -9.8 -15.7 -18.1 -22.3 -35.3 -0.6 -1.4 -2.3 -2.5 -5.6 -3.3 -7 -1.8 -17.9 -7.4 -25.8 -13.3 -12.3 -9.3 -22.5 -24.2 -27.6 -40.3 -2.8 -8.9 -3.8 -26 -2.1 -35.6 l1.3 -6.9 -5.6 -6.7 c-6.6 -8 -12.5 -18.9 -15.8 -29.3 -2 -6.4 -2.3 -9.6 -2.3 -22 0 -12.4 0.3 -15.6 2.3 -22 3.3 -10.4 9.2 -21.3 15.8 -29.3 l5.7 -6.8 -1.2 -5.6 c-1.4 -7.2 -1.4 -20.8 0 -29.1 1.1 -5.9 1 -6.7 -0.6 -7.8 -1.7 -1.3 -1.7 -1.6 0.4 -7.6 4.9 -13.6 16.5 -28.9 28.5 -37.5 2.8 -2 5.8 -4.5 6.6 -5.5 0.9 -1.1 6 -3.6 11.5 -5.6 l9.8 -3.8 1.8 -5.2 c2.6 -7.5 7.4 -16.2 12.7 -22.8 6.1 -7.5 7.5 -8.3 10 -6.1 1.9 1.7 2.2 1.6 8.8 -3.4 7.6 -5.7 18.2 -11 27.1 -13.4 7.2 -1.9 24.1 -2.9 31 -1.8 l5.2 0.8 -6.7 9 c-10.3 13.7 -15.6 22.5 -24.2 40 -9.7 19.6 -14 31.3 -19 50.9 -4.3 17 -6.8 33 -7.7 48.9 -0.5 9.8 -0.4 10.9 1.3 12.2 1.8 1.3 1.7 1.4 -1.6 1.5 -5.3 0 -13.2 -5.8 -19.9 -14.5 -2.1 -2.8 -2.4 -2.9 -3.6 -1.2 -0.7 1 -2.7 7.3 -4.5 14 -11.8 44.1 -10.3 79.1 4.5 109.3 8.4 17.3 19.8 30.2 36.4 41.4 7.2 4.8 24 13 31.9 15.6 3 0.9 5.7 2.5 6.3 3.7 1 1.8 0.9 1.9 -1.5 1.3 -2.6 -0.6 -2.6 -0.5 -1.5 1.6 2.7 5.1 16 22.8 24.6 32.8 23.7 27.7 54 49.7 86.6 62.9 5.4 2.3 9.2 4.4 9.2 5.2 0 2.2 -13.9 8.6 -23.5 10.9 -10.2 2.3 -27 2.6 -36.5 0.5z"/>
  <path d="M439.3 108.8 c-0.8 -1.3 -2.7 -2.2 -15.3 -6.8 -5.3 -1.9 -7.8 -3.4 -8.7 -5.1 -0.6 -1.3 -3.2 -6.7 -5.7 -11.9 -2.5 -5.2 -6.8 -12.3 -9.6 -15.7 l-5.2 -6.2 2.1 -3 c7.2 -10.1 24.2 -20.8 37.6 -23.6 20 -4.2 41.1 1.8 56.2 15.8 5.7 5.3 14.2 16.4 13.1 17.1 -0.1 0.1 -3.3 0.8 -7.1 1.5 -9.7 1.7 -19.9 5.7 -28.1 11.1 -7.9 5.2 -19 16.5 -23.1 23.4 -2.7 4.6 -4.7 5.7 -6.2 3.4z"/>
 </g>
 <g fill="#ffc9d3">
  <path d="M223.7 383.9 c-14.2 -1.4 -26.4 -3.6 -40.2 -7.2 l-13 -3.3 -7.7 -14.9 c-9.8 -18.9 -17.8 -38.9 -17.8 -44.4 0 -4 0.1 -4.1 3.5 -4.1 1.8 0 5.7 0.5 8.4 1.1 9.1 1.9 20.9 -1.8 28.4 -9 8.9 -8.4 10.4 -17.5 4.2 -24.9 -2.3 -2.8 -2.4 -3.6 -2.2 -13.5 0.2 -9.9 0 -10.8 -2.1 -12.9 l-2.3 -2.3 -2.5 2.8 c-1.7 2.1 -2.4 4 -2.4 7.1 0 3.9 -0.3 4.5 -2.6 5 -1.5 0.4 -5.6 0.4 -9.3 0.1 -7.7 -0.7 -18.4 1.3 -23.7 4.4 -3.8 2.3 -8.9 2.8 -10 1 -2.7 -4.5 -7.4 -68 -4.8 -66.7 0.5 0.2 3.5 1.7 6.8 3.2 3.2 1.6 7.1 3 8.7 3.1 1.6 0.1 3.2 0.5 3.6 0.9 1 0.9 18.3 0.7 18.3 -0.3 0 -0.5 1.7 -0.8 3.8 -0.7 8.4 0.2 22.3 -9 32.8 -21.7 3.8 -4.5 5.8 -4.6 9.2 -0.5 7.4 8.7 10 11.2 14.7 14.3 6 4 14.4 7.9 15.2 7.1 0.4 -0.3 1.2 -0.1 1.9 0.5 0.8 0.6 2 0.9 2.9 0.6 0.8 -0.4 1.7 -0.2 2 0.3 0.9 1.4 15.5 1.3 15.5 -0.1 0 -0.7 1 -0.9 2.5 -0.5 1.6 0.4 2.5 0.2 2.5 -0.5 0 -0.7 0.9 -0.9 2.4 -0.5 3.1 0.8 16.7 -5.9 17.3 -8.5 0.3 -1.1 1.3 -1.9 2.3 -1.9 1.6 0 3.8 -2.1 11.2 -10.8 3.4 -4.1 5.4 -4 9.2 0.5 9.6 11.6 23.4 21.1 31.5 21.8 1.7 0.1 3.4 0.5 3.8 0.9 1.2 1.1 18.3 0.7 18.3 -0.5 0 -0.6 0.9 -0.9 2 -0.6 1.1 0.3 2 0.1 2 -0.5 0 -0.6 1.1 -0.7 2.5 -0.4 1.8 0.5 2.7 0.2 3.1 -0.9 0.4 -0.9 1.4 -1.5 2.3 -1.4 2.6 0.4 6.1 -1.1 6.1 -2.7 0 -0.8 0.7 -1.4 1.5 -1.4 0.8 0 1.5 -0.4 1.5 -1 0 -0.5 0.9 -1 2.1 -1 1.2 0 2.3 -0.8 2.6 -1.9 0.3 -1.1 1.5 -2.1 2.7 -2.3 1.1 -0.2 2.1 -1 2.1 -1.8 0 -0.8 0.9 -2 2 -2.5 1.1 -0.6 2 -1.7 2 -2.5 0 -4.9 7.9 -4.6 10.3 0.3 2 4.2 7.9 28 9.9 40.2 2.7 16.4 2.4 45.4 -0.5 59.3 -9.9 46.1 -38.9 75 -89.1 88.8 -21.5 5.9 -35.8 7.5 -68.1 7.9 -15.7 0.2 -32.5 -0.1 -37.3 -0.6z m139.4 -75.1 c9.6 -4.4 15.5 -11 17.4 -19.6 1.6 -7.5 -9.3 -20.6 -19.7 -23.6 -3.1 -0.9 -6.3 -1.6 -7.2 -1.6 -0.9 0 -2.5 -0.6 -3.6 -1.2 -1.6 -1 -2.2 -1 -2.8 -0.1 -0.4 0.6 -3.5 1.5 -7 1.9 l-6.2 0.7 0 -5.6 c0 -4.5 -0.5 -6.1 -2.5 -8.4 l-2.5 -2.8 -2.6 3 c-2.6 2.9 -2.7 3.1 -2 13.2 0.6 8.8 0.4 10.4 -0.9 10.9 -0.8 0.3 -1.5 1.2 -1.5 2 0 0.8 -0.4 1.4 -0.8 1.4 -0.4 0 -1.3 1.9 -2 4.3 -1.1 3.7 -1.1 5 0.3 9.1 5.4 15.8 27.1 24 43.6 16.4z m-115.5 -14.8 c7.4 -3.8 9.7 -3.7 17.1 0.1 5.1 2.6 6.7 3 10.1 2.4 5.5 -0.9 12.6 -5.6 15.8 -10.5 3.3 -5 3.9 -11.6 1.2 -13.4 -2.8 -1.7 -5.1 0.4 -6.5 5.9 -1.7 6.9 -4 8.8 -11 9.2 -7 0.5 -11.9 -2 -12.8 -6.4 -1.1 -5.5 -2 -7.6 -3.7 -8.7 -2.8 -1.7 -5.1 0.4 -6.5 5.9 -1.6 6.3 -4 8.6 -9.6 9.2 -8.4 1 -14.7 -3.1 -14.7 -9.5 0 -3.3 -3.3 -6.6 -5.8 -5.8 -7.9 2.5 1.1 19.1 12.7 23.2 5.3 1.9 7.2 1.7 13.7 -1.6z"/>
  <path d="M474 151.8 c-4.1 -14 -17.6 -31.6 -30.7 -40.3 -2.4 -1.5 -4.3 -3 -4.3 -3.2 0 -1.5 8.3 -12.8 13.4 -18.2 11.2 -11.7 25.5 -19.3 42.4 -22.5 7.1 -1.3 7.3 -1.3 8.7 0.8 6.8 10.4 9.7 32 6 46.1 -3.7 14.6 -14.5 29.7 -26.9 37.7 -3.3 2.1 -6.2 3.8 -6.6 3.8 -0.4 0 -1.3 -1.9 -2 -4.2z"/>
 </g>
 <g fill="#fbdab2">
  <path d="M65.3 103.8 c-8 -12.2 -21.4 -23.1 -35.3 -28.6 -6.5 -2.6 -16.5 -5.2 -19.7 -5.2 -1.3 0 -2.3 -0.2 -2.3 -0.5 0 -2 7.7 -12 13.3 -17.2 25.2 -23.5 63.1 -22.8 88 1.8 l7.9 7.8 -3.1 2.7 c-6.2 5.2 -14.6 18.6 -18.1 28.9 l-1.7 4.9 -9.9 3.8 c-5.8 2.1 -10.5 4.6 -11.3 5.8 -0.7 1.1 -1.9 2 -2.5 2 -0.7 0 -3 -2.8 -5.3 -6.2z"/>
 </g>
 <g fill="#ffb2c1">
  <path d="M164 370.6 c-22.5 -9.8 -37.3 -20.4 -49.2 -35.5 -6.9 -8.6 -15.9 -26.4 -18.8 -37.1 -5.1 -19 -6.3 -42.5 -3.4 -65.2 1.7 -13.5 8.5 -41.8 10.9 -45.5 2.6 -3.9 6.5 -3.1 10.6 2.3 3.4 4.6 9.5 10.1 13.5 12.2 2 1 2.1 2.2 2.7 18.9 0.6 16.2 3.6 42.7 5.1 45.1 0.4 0.6 2.8 -0.2 6.1 -2 3.1 -1.6 6.2 -2.7 7 -2.4 0.8 0.3 1.5 0 1.5 -0.5 0 -0.6 0.9 -0.9 2 -0.6 1 0.3 2.1 0 2.2 -0.5 0.5 -1.5 6.8 0.1 6.8 1.6 0 0.8 -2.8 2.1 -6.5 3.1 -3.6 0.9 -8.2 2.8 -10.1 4.1 -1.9 1.3 -4.1 2.4 -4.9 2.4 -3.6 0 -10 12.4 -9.1 17.5 1.7 8.7 12 18.3 22.4 20.7 4.4 1.1 5.2 1.6 5.2 3.6 0 1.7 -0.4 2.2 -1.7 1.8 -5.4 -1.5 -8.3 -1.7 -8.3 -0.6 0 4.2 17.7 43.3 24.6 54.1 4.4 7 2.8 7.5 -8.6 2.5z"/>
  <path d="M164 312.6 c0 -2.1 0.6 -2.5 5.2 -3.1 2.8 -0.4 5.8 -1.4 6.6 -2.1 0.7 -0.8 2.7 -1.4 4.3 -1.4 2.2 0 2.9 -0.5 2.9 -1.8 0 -2 2.9 -5.2 4.7 -5.2 0.6 0 1.3 -1 1.6 -2.2 1.8 -7.3 3.2 -9.8 5.6 -9.8 2.1 0 2.3 0.3 1.6 3.7 -2.1 11.3 -12 20.4 -25.3 23.2 -7.1 1.5 -7.2 1.5 -7.2 -1.3z"/>
  <path d="M337.3 313.6 c-8.4 -2.7 -17.6 -9.7 -19.6 -14.9 -0.5 -1.3 -0.1 -1.7 1.8 -1.7 2.2 0 2.5 0.4 2.5 3.5 0 3.3 0.2 3.5 3.5 3.5 2.4 0 3.5 0.5 3.5 1.5 0 0.9 0.9 1.5 2.5 1.5 1.4 0 2.5 0.4 2.5 0.8 0 1.5 13.6 3.5 18.5 2.9 4.7 -0.7 14.7 -4.5 15.3 -5.9 0.2 -0.4 2.4 -0.8 4.9 -0.8 4.6 0 4.6 0 2.8 2 -1 1.1 -4.8 3.5 -8.3 5.2 -5.8 2.9 -7.7 3.3 -16.1 3.5 -6.1 0.2 -11.1 -0.2 -13.8 -1.1z"/>
  <path d="M377 298.5 c0 -1.4 0.6 -4.3 1.2 -6.5 1 -3.2 1.8 -4 3.7 -4 2.1 0 2.3 0.3 1.6 3.7 -0.9 5 -3.2 9.3 -5 9.3 -0.9 0 -1.5 -1 -1.5 -2.5z"/>
  <path d="M316 293.5 c0 -0.8 -0.4 -1.5 -0.9 -1.5 -0.5 0 -0.7 -0.9 -0.4 -2 0.9 -3.5 3.3 -2.4 3.3 1.5 0 1.9 -0.4 3.5 -1 3.5 -0.5 0 -1 -0.7 -1 -1.5z"/>
  <path d="M191.1 282.3 c-0.7 -2.1 -1.5 -5.6 -1.8 -7.8 l-0.5 -4 2.2 2 c2.7 2.4 4.5 5.9 5.5 10.3 0.6 2.9 0.4 3.2 -1.7 3.2 -1.8 0 -2.6 -0.9 -3.7 -3.7z"/>
  <path d="M314.8 284.2 c-0.3 -1 0.1 -2.4 0.9 -3.1 0.8 -0.7 1.2 -2.2 1 -3.2 -0.3 -1.2 0 -1.9 1 -1.9 0.9 0 1.3 -0.6 1 -1.4 -0.3 -0.8 0.2 -1.6 1.4 -1.9 1.5 -0.4 1.8 -1.1 1.3 -3.6 -0.6 -2.7 -0.4 -3.1 1.5 -3.1 1.7 0 2.1 0.6 2.1 3.5 0 1.9 -0.4 3.5 -1 3.5 -0.5 0 -1 0.9 -1 2 0 1.1 -0.4 2 -1 2 -0.5 0 -1 0.7 -1 1.5 0 0.8 -0.4 1.5 -1 1.5 -0.5 0 -1 1.4 -1 3 0 2.3 -0.5 3 -1.9 3 -1 0 -2.1 -0.8 -2.3 -1.8z"/>
  <path d="M378.2 281.7 c-1.4 -4 -1.6 -8.7 -0.3 -8.7 1.2 0 4.8 5.8 5.6 9.3 0.6 2.4 0.4 2.7 -1.7 2.7 -1.8 0 -2.7 -0.8 -3.6 -3.3z"/>
  <path d="M362.7 266.7 c-6.3 -3.3 -10.8 -3.8 -21.4 -2.3 l-6.3 0.9 0 -4.2 c0 -2.2 0.5 -4.1 1 -4.1 0.6 0 1 1.2 1 2.8 0 1.9 0.3 2.3 0.9 1.3 0.6 -0.9 1.8 -1.1 3.4 -0.7 1.5 0.3 2.7 0.1 2.9 -0.5 0.5 -1.5 7.5 -1.4 9.3 0.1 0.8 0.6 2.3 0.9 3.4 0.5 1 -0.3 2.2 -0.1 2.5 0.4 0.4 0.6 1.3 0.8 2.1 0.4 0.8 -0.3 1.5 0.1 1.5 0.8 0 0.7 0.3 1 0.6 0.6 0.9 -0.9 7.5 2.6 9.8 5.2 1.9 2.1 1.9 2.1 -1.5 2 -1.9 -0.1 -6 -1.5 -9.2 -3.2z"/>
  <path d="M170 264 c-0.8 -0.5 -2.5 -1 -3.7 -1 -1.3 0 -2.3 -0.6 -2.3 -1.4 0 -1.7 4 -2.9 5.5 -1.6 1.5 1.3 5.5 0.1 5.5 -1.6 0 -0.8 0.7 -1.4 1.5 -1.4 1.1 0 1.5 1.1 1.5 4 0 3.8 -0.1 4 -3.2 4 -1.8 0 -4 -0.5 -4.8 -1z"/>
  <path d="M29.3 152 c-12.9 -8.6 -23 -22.7 -26.8 -37.5 -3.3 -12.6 -1.6 -30 4 -42.2 2.2 -4.9 2.7 -5.3 5.7 -5.3 4.2 0 13.6 2.4 20.8 5.2 14 5.6 27.2 16.3 35.6 28.9 2.4 3.7 4.4 6.9 4.4 7.1 0 0.3 -2.5 2.2 -5.5 4.2 -11.8 8.2 -24.5 24.4 -29.1 37.1 -0.9 2.8 -2 5.4 -2.4 5.8 -0.4 0.4 -3.4 -1.1 -6.7 -3.3z"/>
 </g>
 <g fill="#ff889e">
  <path d="M155.5 314 c-0.4 -0.6 -1.1 -0.7 -1.7 -0.4 -0.5 0.4 -2 0.2 -3.1 -0.4 -1.2 -0.6 -4.2 -1.9 -6.7 -3.1 -13.6 -6.2 -20.4 -20.1 -15.5 -31.8 2.1 -5 6.3 -10.3 8.1 -10.3 0.9 0 2.7 -0.9 4.1 -2 6.1 -4.7 22.7 -7.5 31.1 -5.1 2.8 0.9 3.2 0.7 3.2 -1.1 0 -3.5 2.5 -1.3 3.1 2.8 1 7.3 4 10.3 6.9 6.9 1.8 -2.1 5 -1.9 5 0.3 0 1 0.9 2.8 1.9 3.9 1.1 1.2 1.7 2.4 1.4 2.7 -0.4 0.3 -0.1 0.6 0.6 0.6 0.7 0 0.9 0.5 0.6 1 -0.3 0.6 -0.1 1 0.6 1 0.6 0 0.9 0.8 0.6 2 -0.3 1.1 -0.1 2 0.4 2 0.5 0 0.9 1.6 0.9 3.5 0 1.9 -0.4 3.5 -0.9 3.5 -0.5 0 -0.7 0.9 -0.4 2 0.3 1.2 0 2 -0.6 2 -0.7 0 -0.9 0.5 -0.6 1 0.3 0.6 0.1 1 -0.5 1 -0.6 0 -0.8 0.5 -0.5 1 0.3 0.6 0.2 1 -0.4 1 -0.6 0 -0.8 0.6 -0.5 1.4 0.3 0.9 -0.5 1.9 -2.3 2.8 -1.5 0.7 -3.4 2.6 -4.1 4.1 -0.9 1.8 -2.1 2.7 -3.8 2.7 -1.3 0 -3.2 0.9 -4.1 2 -1.2 1.3 -2.4 1.8 -4 1.4 -1.3 -0.4 -2.3 -0.2 -2.3 0.4 0 0.5 -1.1 0.7 -2.5 0.4 -1.5 -0.2 -2.5 0 -2.5 0.7 0 1.4 -10.6 1.5 -11.5 0.1z"/>
  <path d="M340.4 313.8 c-0.3 -0.5 -1 -0.6 -1.5 -0.2 -0.5 0.3 -1.6 0 -2.4 -0.6 -0.8 -0.7 -1.5 -0.9 -1.5 -0.6 0 0.9 -5.6 -2.2 -10.3 -5.7 -10.3 -7.8 -12.5 -22.4 -5 -32.5 1.4 -1.8 2.2 -4 1.9 -4.7 -0.4 -1.1 0.2 -1.5 1.9 -1.5 1.4 0 2.5 0.4 2.5 0.9 0 0.5 0.8 1.2 1.7 1.6 2.6 0.9 6.3 -3.8 6.3 -7.9 0 -2.1 0.6 -3.6 1.5 -4 1 -0.4 1.5 0.1 1.5 1.5 0 1.6 0.4 1.8 2.8 1.2 5.4 -1.6 18.4 -0.7 24.4 1.6 5.9 2.3 15.8 10.2 15.8 12.7 0 0.8 0.5 1.4 1.1 1.4 0.5 0 0.7 0.5 0.4 1 -0.3 0.6 -0.1 1 0.5 1 0.7 0 1 0.7 0.6 1.5 -0.3 0.8 -0.1 1.5 0.4 1.5 0.6 0 1 2 1 4.5 0 2.5 -0.5 4.5 -1.1 4.5 -0.6 0 -0.8 0.9 -0.4 2 0.4 1.2 0.2 2 -0.5 2 -0.6 0 -0.8 0.5 -0.5 1 0.3 0.6 0.2 1 -0.4 1 -0.6 0 -0.8 0.6 -0.5 1.4 0.7 1.9 -5.3 8.6 -7.8 8.6 -1 0 -1.6 0.5 -1.3 1 0.3 0.6 -0.1 1 -0.9 1 -1.8 0 -8.9 3.2 -9.4 4.1 -0.2 0.4 -1.2 0.5 -2.2 0.2 -1.1 -0.3 -2 -0.1 -2 0.3 0 1.1 -16 1.2 -16.6 0.2z"/>
 </g>
 <g fill="#423e4f">
  <path d="M230.9 298.6 c-9.3 -3.3 -15.9 -12.4 -15.9 -22 0 -5.3 2.8 -8.6 7.2 -8.6 3.4 0 7.8 4 7.8 7 0 3.8 2.8 7.8 6.3 8.9 6.2 2.1 10.8 -1.3 12.1 -9.1 0.8 -4.3 3.7 -6.8 7.9 -6.8 3.5 0 7.7 4 7.7 7.5 0 3.7 1.6 6.2 5.1 8.1 6.1 3.1 12 -0.7 13.3 -8.5 0.9 -6.1 6.4 -8.9 11.7 -6 3.2 1.6 4.1 5.5 2.9 11.5 -2.3 11 -11 18.3 -22.8 19.1 -6 0.5 -7.3 0.2 -12.4 -2.5 l-5.6 -3 -5.7 2.9 c-6.4 3.2 -13.3 3.8 -19.6 1.5z"/>
  <path d="M179.7 274.3 c-3.2 -0.8 -4.7 -5.6 -4.7 -14.8 0 -8.3 0.1 -8.8 3 -11.7 2.5 -2.4 3.6 -2.9 5.8 -2.3 5.7 1.4 6.7 3.6 6.7 14.6 0 9.8 -0.1 10.1 -2.8 12.5 -2.7 2.3 -4.3 2.7 -8 1.7z"/>
  <path d="M325.4 273.8 c-3.3 -1.6 -4.4 -5.1 -4.4 -14.3 0 -7.4 0.3 -8.7 2.3 -11.1 1.7 -2 3.3 -2.7 5.7 -2.7 2.4 0 4 0.7 5.7 2.7 2 2.4 2.3 3.7 2.3 11.7 0 8.7 -0.1 9.2 -2.9 12 -3.1 3 -5.2 3.5 -8.7 1.7z"/>
 </g>
</svg>