<?xml version="1.0" encoding="utf-8"?>
<!DOCTYPE svg PUBLIC "-//W3C//DTD SVG 1.0//EN" "http://www.w3.org/TR/2001/REC-SVG-20010904/DTD/svg10.dtd">
<svg version="1.0" xmlns="http://www.w3.org/2000/svg" width="192px" height="192px" viewBox="0 0 192 192" preserveAspectRatio="xMidYMid meet">
 <g fill="#000000">
  <path d="M86.3 182.1 c-2.8 -0.9 -6.6 -2.9 -8.5 -4.2 -2.9 -2.3 -4 -2.5 -10.3 -2.1 -12.5 0.7 -24.5 -6 -29.5 -16.5 -1.9 -4 -3.1 -5.2 -6.9 -6.8 -10.8 -4.5 -18.1 -16.3 -18.1 -29.1 0 -5.5 -0.4 -7.1 -2.6 -9.9 -7.1 -9.3 -7.1 -25.7 0 -35 2.2 -2.9 2.6 -4.4 2.6 -10.4 0 -7 -0.1 -7.2 -3.9 -10.6 -4.3 -4 -8.1 -11.8 -8.4 -17.3 -0.4 -11.2 7.8 -22.6 18.6 -25.7 8.4 -2.4 16.8 -0.6 23.6 5 l3.1 2.7 5.7 -2.9 c4.9 -2.4 7.1 -2.8 14.3 -2.9 7.5 0 9 -0.4 12.7 -2.8 10.9 -7.2 23.7 -7.2 34.6 0 3.7 2.4 5.2 2.8 12.7 2.8 7.2 0.1 9.4 0.5 14.3 3 l5.8 2.8 2.2 -2 c4.8 -4.4 14.7 -7.9 14.7 -5.2 0 1.3 7.3 1.3 8.6 0 1.6 -1.6 8.7 2.4 13.1 7.3 4.3 5 6.8 11.7 6.6 17.9 -0.3 5.5 -4.1 13.3 -8.4 17.3 -3.8 3.4 -3.9 3.6 -3.9 10.6 0 5.9 0.4 7.6 2.4 10.2 7.3 9.7 7.3 25.7 0 35.4 -2 2.6 -2.4 4.4 -2.4 9.7 0 12.8 -7.3 24.6 -18.1 29.1 -3.8 1.6 -5 2.8 -6.9 6.8 -5 10.5 -17 17.2 -29.5 16.5 -6.4 -0.4 -7.3 -0.2 -10.9 2.4 -7.9 5.6 -18.1 7.1 -27.3 3.9z m18.2 -8.8 c1.6 -0.8 4.2 -2.7 5.7 -4.1 2.6 -2.4 3.1 -2.5 11 -1.8 7.4 0.5 8.8 0.4 13.3 -1.7 5.8 -2.7 10.9 -8.1 13.5 -14.2 1.3 -3 2.6 -4.4 4.5 -4.9 4.1 -1 10 -5.1 12.9 -8.9 4.5 -5.9 5.8 -10.3 5.1 -17.3 -0.7 -6 -0.6 -6.5 2.4 -10.3 3.3 -4.1 6.1 -10.9 6.1 -14.5 -0.1 -3.6 -2.6 -9.3 -6 -13.6 -3.1 -4 -3.2 -4.3 -2.6 -10.8 0.5 -5.8 0.3 -7.4 -1.8 -11.7 -3 -6.3 -6.6 -9.7 -13.8 -13 -4.6 -2.1 -5.9 -3.2 -6.8 -5.9 -1.6 -5 -7.4 -11.1 -13.2 -14 -4.7 -2.4 -5.8 -2.5 -13.5 -1.9 -8 0.6 -8.5 0.5 -11.1 -1.9 -8.7 -8.1 -19.7 -8.2 -28.4 0 -2.6 2.4 -3.1 2.5 -11 1.8 -7.4 -0.5 -8.8 -0.4 -13.4 1.8 -5.6 2.6 -11.8 9.1 -13.5 14.3 -0.9 2.8 -2.1 3.9 -6.7 5.9 -6.8 3 -9.5 5.4 -13 11.4 -2.4 4 -2.7 5.4 -2.5 12.4 0.2 7.4 0.1 8.1 -2.7 11.6 -7.2 9.1 -7.4 17.3 -0.8 26.5 4 5.6 4 5.7 3.3 12.1 -0.6 5.8 -0.4 7.1 2 11.9 3.1 6.3 8.8 11.6 14.6 13.5 3.4 1.1 4.5 2.2 5.9 5.6 2.6 6 7.8 11.4 13.5 14.1 4.5 2.1 5.9 2.2 13.3 1.7 7.9 -0.7 8.4 -0.6 11 1.8 7 6.6 14.9 8 22.7 4.1z m76.5 -128.4 c2.5 -4.8 2.4 -9.5 -0.3 -9.3 -1 0.1 -3.3 1.2 -5.2 2.5 l-3.3 2.3 2.9 3.3 c1.6 1.9 2.9 3.8 2.9 4.3 0 1.9 1 0.9 3 -3.1z m-164.5 -0.6 l3.2 -3.8 -3.8 -2.8 c-4.4 -3.3 -6.9 -3 -6.9 0.7 0 2.4 2.9 9.6 3.8 9.6 0.3 0 1.9 -1.7 3.7 -3.7z m17.8 -14.8 c0.9 -2 1.7 -3.7 1.7 -3.9 0 -1 -7.8 -3.9 -10.2 -3.8 -5.9 0.2 -6.2 1.6 -0.9 5 2.7 1.8 5.1 3.9 5.5 4.7 0.9 2.4 2.1 1.8 3.9 -2z m127.3 2 c0.4 -0.8 2.8 -2.9 5.6 -4.7 l4.9 -3.2 -2.7 -1.4 c-2.3 -1.2 -3.2 -1.2 -6.8 0.2 -6.8 2.7 -6.9 2.8 -5 6.9 1.9 4 3.1 4.6 4 2.2z"/>
  <path d="M76.7 147.9 c-12.3 -1.7 -27.7 -7.9 -31.4 -12.7 -0.7 -0.9 -1.3 -2.8 -1.3 -4.4 0 -2.5 -0.4 -2.8 -3.1 -2.8 -2.7 0 -3.3 -0.6 -5.9 -6.3 -1.7 -3.4 -3.5 -9 -4.1 -12.2 -2.3 -12.3 0.9 -39.3 5.2 -43.6 1.2 -1.2 3.3 -1.9 5.9 -1.9 3.3 0 4.8 0.7 8.4 4 7.2 6.6 13.4 6.3 19.9 -0.9 2.3 -2.7 3.4 -3.1 7.5 -3.1 4.3 0 5.3 0.5 8.9 3.9 6.8 6.7 11.8 6.7 18.6 0 3.6 -3.5 4.6 -3.9 8.9 -3.9 4.4 0 5.3 0.4 8.6 3.9 6.3 6.6 11.1 6.7 18.7 0.1 3.7 -3.2 5.4 -4 8.6 -4 2.5 0 4.6 0.7 5.8 1.9 2.5 2.5 5.2 14.4 5.8 26.1 1.7 29.7 -10.3 47 -37.2 54.1 -9.3 2.4 -36.3 3.4 -47.8 1.8z m40.8 -13.3 c22.9 -6.2 34.4 -22 32.1 -43.9 -1 -8.6 -1.4 -9.1 -5.9 -7.2 -2.3 0.9 -6.8 1.5 -12 1.5 -7 0 -9.2 -0.4 -13.1 -2.5 l-4.6 -2.4 -4.7 2.5 c-4.4 2.3 -5.6 2.5 -14.3 2.2 -7.7 -0.3 -10.2 -0.8 -13.2 -2.6 l-3.6 -2.2 -4.8 2.5 c-3.9 2.1 -6 2.5 -13.1 2.5 -5.2 0 -9.7 -0.6 -12 -1.5 -2 -0.8 -3.8 -1.3 -4.1 -1.1 -0.9 0.9 -2.1 9.1 -2.1 14.1 -0.1 6.1 2 14.3 4.8 19.1 1.2 1.9 2.1 4.8 2.1 6.5 0 2.4 0.4 2.9 2.5 2.9 1.3 0 4.5 1.3 7.1 3 5 3.1 13.8 6.3 21.9 7.9 7.2 1.4 29.8 0.6 37 -1.3z"/>
  <path d="M80.9 112.1 c-2.5 -2.5 -2.9 -3.7 -2.9 -8.4 0 -6 0.6 -6.7 6.5 -6.7 2 0 3.8 0.6 4.3 1.6 0.8 1.4 1 1.4 2.1 0 0.8 -0.9 2.9 -1.6 5.1 -1.6 2.2 0 4.3 0.7 5.1 1.6 1.1 1.4 1.3 1.4 2.1 0 0.5 -1 2.3 -1.6 4.3 -1.6 5.9 0 6.5 0.7 6.5 6.7 0 4.7 -0.4 5.9 -2.9 8.4 -2.9 2.9 -3 2.9 -15.1 2.9 -12.1 0 -12.2 0 -15.1 -2.9z"/>
  <path d="M64.4 104.7 c-0.3 -0.8 -0.4 -4.5 -0.2 -8.3 l0.3 -6.9 5 0 5 0 0 8 0 8 -4.8 0.3 c-3.3 0.2 -4.9 -0.1 -5.3 -1.1z"/>
  <path d="M117.4 104.7 c-0.3 -0.8 -0.4 -4.5 -0.2 -8.3 l0.3 -6.9 5 0 5 0 0 8 0 8 -4.8 0.3 c-3.3 0.2 -4.9 -0.1 -5.3 -1.1z"/>
 </g>
 <g fill="#ff889e">
  <path d="M119.6 118 c-1.7 -1 -3.6 -2.9 -4.3 -4.2 -1.5 -2.8 -1.7 -8.7 -0.3 -12.2 1.2 -3.2 4.5 -3.5 5.3 -0.5 0.4 1.3 1.2 2 2.4 1.7 1.3 -0.2 1.9 -1.4 2.1 -4.6 l0.3 -4.2 4.2 0 c10.9 0 15.7 3.8 15.7 12.6 0 3 -0.5 6.4 -1 7.5 -1.5 2.7 -6.6 4.6 -14.6 5.3 -5.8 0.4 -7.4 0.2 -9.8 -1.4z"/>
  <path d="M51.5 118.1 c-1.1 -0.5 -2.9 -1.8 -3.9 -3 -2.4 -2.7 -3.2 -11.6 -1.4 -15 1.7 -3.1 9 -6 15.5 -6 l5.2 -0.1 0.3 4.2 c0.2 3.2 0.8 4.4 2.1 4.6 1.2 0.3 2 -0.4 2.4 -1.7 0.6 -2.2 1.2 -2.5 3.7 -1.5 1.2 0.5 1.6 2.1 1.6 6.6 0 7.3 -1 9.4 -5.7 11.3 -3.8 1.6 -16.4 2 -19.8 0.6z"/>
 </g>
 <g fill="#ffb2c1">
  <path d="M61.2 134 c-2.4 -1.1 -5.6 -2.9 -7.2 -4 -3.5 -2.5 -5.6 -2.5 -6.9 -0.2 -0.8 1.3 -1.4 1.5 -2.8 0.6 -2.4 -1.5 -3 -5.4 -0.8 -5.4 2.6 0 2.8 -2.5 0.5 -6.3 -4.7 -8 -6.3 -21.8 -3.9 -35.2 1.5 -8.8 2.1 -9.4 5.8 -6.2 1.7 1.4 4 2.8 5.1 3.2 1.5 0.5 2 1.5 2 4.3 0 7.2 0.8 8.2 5.6 8.2 2.4 0 4.4 -0.4 4.4 -1 0 -0.5 1.7 -1 3.8 -1 3 0.1 3.4 0.3 2 1.1 -1 0.5 -1.8 2.1 -1.8 3.4 0 2.1 -0.3 2.3 -3.2 1.9 -4.6 -0.8 -13 2.6 -14.6 5.9 -4.3 8.8 8.7 16.2 19.3 11 2.2 -1.1 3.9 -2.5 3.8 -3.1 -0.2 -0.7 0.1 -1.2 0.5 -1.2 0.4 0 0.8 -1.6 0.8 -3.5 0 -1.9 -0.4 -3.5 -0.8 -3.5 -0.4 0 -0.8 -1.1 -0.8 -2.5 0 -3.9 3.6 -3.4 4.4 0.6 0.9 4.8 0.7 11.8 -0.4 14 -1.5 2.7 -6.2 4.9 -10.5 4.9 -3.3 0 -3.6 0.2 -3 2.3 0.4 1.2 1.6 3.7 2.6 5.5 1.9 3.3 2.6 8.2 1.2 8.2 -0.5 0 -2.7 -0.9 -5.1 -2z"/>
  <path d="M120.4 118.6 c-3.6 -1.7 -5.4 -3.2 -6.3 -5.5 -1.5 -3.6 -1 -13.3 0.8 -13.9 0.6 -0.2 1.1 -1.2 1.1 -2.3 0 -1.2 0.7 -1.9 2 -1.9 2.5 0 2.7 4.2 0.4 8.9 -4.5 9 7.5 15.6 18.6 10.2 1.9 -0.9 3.4 -2.3 3.3 -2.9 -0.2 -0.7 0 -1.2 0.5 -1.2 1.5 0 0.6 -6.6 -1.2 -8.8 -2.3 -2.6 -8.5 -4.5 -12.1 -3.6 -2.2 0.5 -2.5 0.3 -2.5 -2.1 0 -1.8 -0.6 -2.9 -2 -3.2 -3.4 -0.9 -2.4 -3.3 1.4 -3.3 2.5 0 3.5 0.5 3.9 2 0.4 1.4 1.4 2 3.4 2 1.5 0 4.7 0.9 7 2 6.6 2.9 9.1 10.8 5.9 18.5 -2.9 6.9 -15 9.4 -24.2 5.1z"/>
  <path d="M11.3 52.8 c-4.2 -4.6 -5.5 -8.7 -5.1 -15.4 0.2 -3.5 0.7 -6.6 1 -7 1.8 -1.7 14.2 4.8 16.8 8.9 0.9 1.6 0.5 2.5 -3 6.3 -2.2 2.4 -4.6 5.5 -5.2 6.9 -1.4 3.1 -1.9 3.1 -4.5 0.3z"/>
 </g>
 <g fill="#fbdab2">
  <path d="M26.6 33.9 c-2.1 -2.3 -6.3 -5.3 -9.4 -6.7 l-5.5 -2.5 2.6 -2.3 c6.6 -5.7 16.5 -5.6 24.4 0.2 l3.2 2.4 -3.8 6.3 c-2.2 3.6 -4.6 6.3 -5.7 6.5 -1.2 0.1 -3.4 -1.4 -5.8 -3.9z"/>
 </g>
 <g fill="#ffc9d3">
  <path d="M76 138.6 c-10.7 -2.3 -11.5 -2.9 -14.8 -9.8 -1.7 -3.5 -3.4 -7.5 -3.7 -9 -0.7 -2.8 -0.7 -2.8 4.1 -2.8 8.9 0 13.5 -4.8 11.9 -12.3 -0.3 -1.7 -0.9 -5.1 -1.2 -7.5 -0.3 -2.4 -1.1 -4.6 -1.9 -4.9 -1.8 -0.7 -4.4 1.4 -3.8 3.1 0.3 0.8 -0.7 1 -3.5 0.8 -2.2 -0.2 -5.6 0.1 -7.6 0.8 -2 0.7 -3.9 1 -4.2 0.7 -0.3 -0.3 -0.8 -4.4 -1 -9.2 l-0.6 -8.6 2.7 1.1 c3.8 1.4 12.1 1.3 15.9 -0.3 1.8 -0.8 4.7 -2.6 6.4 -4.1 l3.2 -2.7 3.9 3 c8.7 7 20.4 6.9 29 -0.3 l3.2 -2.8 3.3 2.8 c4.5 3.8 8.8 5.4 14.7 5.4 5.7 0 11.3 -2 14.8 -5.3 3 -2.8 3.7 -1.7 5.3 7.7 1.6 9.6 0.7 22.7 -2.1 30.1 -4.1 10.7 -14.7 19 -29.5 23.1 -8.2 2.2 -35.6 2.8 -44.5 1z m61.3 -23.3 c1.6 -0.8 3.5 -3 4.3 -4.9 1.2 -2.9 1.2 -3.9 0 -6.8 -1.5 -3.5 -6 -6.7 -8.3 -5.9 -0.7 0.3 -1.3 0 -1.3 -0.6 0 -1.5 -5.7 -1.4 -6.4 0.2 -0.4 0.8 -0.5 0.7 -0.5 -0.3 0.3 -3.9 -0.2 -5 -2.1 -5 -2.4 0 -3.1 1.3 -3.3 6.4 -0.1 2 -0.7 3.6 -1.4 3.6 -0.7 0 -1 0.7 -0.7 1.5 0.4 0.8 0.1 1.5 -0.5 1.5 -0.6 0 -1.1 0.9 -1.1 2 0 1.1 0.5 2 1.1 2 0.5 0 0.7 0.5 0.4 1 -0.3 0.6 -0.1 1 0.5 1 0.6 0 0.8 0.5 0.5 1 -0.4 0.6 1.8 2.1 4.7 3.5 5.6 2.7 8.7 2.6 14.1 -0.2z m-41.3 -4.3 c0.8 0 3.2 0.2 5.2 0.6 3.3 0.5 4.1 0.2 6.8 -2.4 3.3 -3.3 4 -7.6 1.4 -8.6 -2.2 -0.9 -2.2 -0.9 -3.9 2.4 -2 3.8 -5 3.9 -6.7 0.3 -1.7 -3.6 -3.9 -3.6 -5.6 0 -1.7 3.6 -4.7 3.5 -6.7 -0.3 -1.7 -3.3 -1.7 -3.3 -3.9 -2.4 -2.6 1 -1.9 5.3 1.4 8.6 2.7 2.6 3.5 2.9 6.8 2.4 2 -0.4 4.4 -0.6 5.2 -0.6z"/>
  <path d="M175.6 51.8 c-1 -1.8 -3.4 -4.9 -5.3 -6.9 -3 -3.2 -3.3 -3.9 -2.2 -5.7 2.4 -3.8 15 -10.5 16.7 -8.8 0.3 0.4 0.8 3.5 1 7 0.4 6.7 -0.9 10.8 -5.1 15.4 -2.7 2.9 -2.9 2.8 -5.1 -1z"/>
 </g>
 <g fill="#fae4c7">
  <path d="M89 178.1 c-4.2 -1.3 -8.4 -3.8 -10.4 -5.9 -1.6 -1.9 -2.6 -2 -10 -1.5 -7 0.5 -8.8 0.3 -13.4 -1.7 -5.9 -2.6 -11.5 -8.2 -14.1 -14.4 -1.5 -3.4 -2.6 -4.4 -6 -5.6 -5.8 -1.9 -11.5 -7.2 -14.6 -13.5 -2.3 -4.6 -2.6 -6.5 -2.4 -12.3 0.3 -6.6 0.2 -7.1 -3.5 -12.5 -3.2 -4.6 -3.9 -6.6 -4.3 -12 -0.6 -7.5 1.1 -13.7 5.3 -19.2 2.4 -3.3 2.7 -4.5 2.8 -11.8 0.1 -7 0.5 -8.9 2.8 -12.7 3.5 -6 6.2 -8.4 13 -11.4 4.6 -2.1 5.8 -3.1 6.8 -6 1.7 -5.3 8.2 -12 14 -14.5 6.5 -2.8 17.3 -2.7 17.8 0.2 0.2 1 -0.3 1.7 -1.1 1.7 -1.7 0 -2.9 1.7 -8 11 -5.3 9.8 -10.7 27.9 -10.7 36.1 0 1.6 -0.3 2.9 -0.6 2.9 -0.4 0 -2.6 -1.8 -5 -4 -2.4 -2.2 -4.8 -4 -5.4 -4 -5.6 0 -10.8 25.2 -8.1 39.5 1.6 8.4 6.5 18.5 8.9 18.5 2.3 0 4.5 2.4 4.7 5.2 0.3 3.6 10 9.3 21.4 12.4 5.5 1.6 7.1 2.6 12.9 8.7 6.8 7.1 16.9 14.4 25.5 18.5 2.6 1.3 4.7 2.7 4.7 3.2 0 0.6 -1.9 1.9 -4.2 3.1 -4.6 2.3 -14.6 3.4 -18.8 2z"/>
  <path d="M156.2 34.9 c-0.9 -1.7 -2.7 -4.6 -3.9 -6.5 l-2.2 -3.3 2.5 -2 c1.4 -1.1 4.5 -2.7 7 -3.7 2.4 -0.9 4.4 -2.1 4.4 -2.5 0 -0.5 1.4 -0.9 3 -0.9 1.7 0 3 0.4 3 0.9 0 0.6 2.3 2.2 5 3.7 2.8 1.5 5 3.1 5 3.5 0 0.4 -2.4 1.9 -5.4 3.2 -3 1.4 -7.1 4.3 -9.2 6.6 -4.7 4.9 -6.9 5.2 -9.2 1z"/>
 </g>
 <g fill="#ffefe0">
  <path d="M102.9 172.2 c-9.6 -4.9 -17.3 -10.8 -25.2 -19.2 -7.5 -7.9 -9.3 -10.8 -6.2 -9.6 4.2 1.6 21.1 2.8 31.1 2.2 26.5 -1.4 43 -9.8 50.9 -25.9 2 -4 4 -10.1 4.6 -13.7 2.5 -14.9 -2.5 -39 -8 -39 -0.6 0 -3 1.8 -5.6 4 -8.6 7.4 -17.6 7.4 -24.7 -0.1 -4.5 -4.7 -6.9 -4.9 -10.5 -0.8 -3.9 4.3 -7.8 6.1 -13.3 6.1 -5.5 0 -9.4 -1.8 -13.3 -6.1 -1.5 -1.7 -3.5 -3.1 -4.5 -3.1 -1.1 0 -3.7 1.8 -5.9 3.9 -5.2 5.1 -10.6 6.7 -17.1 4.9 -4.3 -1.3 -4.7 -1.6 -5 -4.8 -0.8 -7.6 3.8 -24.6 9.9 -36.5 6.1 -12.1 6.9 -13 12.2 -12.7 3.4 0.1 4.9 -0.3 6.3 -1.9 3.9 -4.3 9.4 -6.4 17.4 -6.4 8 0 13.5 2.1 17.4 6.4 1.7 1.9 2.6 2 10.2 1.5 7.7 -0.6 8.7 -0.5 13.8 2 6.1 3 11.9 9.1 13.6 14.2 0.9 2.7 2.2 3.8 7.1 6 10.9 4.9 16.5 14.1 15.7 25.6 -0.5 5.8 -0.3 6.6 2.5 10.1 7.6 9.7 7.6 23.4 0 33.4 -2.5 3.2 -2.7 4.3 -2.4 10.3 0.3 7.3 -1.2 12 -5.5 17.7 -2.9 3.8 -8.8 7.9 -12.9 8.9 -1.9 0.5 -3.2 1.9 -4.5 5 -2.7 6.2 -8.3 11.8 -14.2 14.4 -4.6 2 -6.4 2.2 -13.4 1.7 -7.7 -0.6 -8.3 -0.5 -10.5 1.9 -2.8 3 -3.2 3 -10 -0.4z"/>
 </g>
</svg>